Coordinates
version=1
nRows=28
nColumns=38
inDegrees=no

Units are S.I. units (second, meters, Newtons, ...)
If the header above contains a line with 'inDegrees', this indicates whether rotational values are in degrees (yes) or radians (no).

endheader
time	pelvis_tilt	pelvis_list	pelvis_rotation	pelvis_tx	pelvis_ty	pelvis_tz	hip_flexion_r	hip_adduction_r	hip_rotation_r	knee_angle_r	ankle_angle_r	subtalar_angle_r	mtp_angle_r	hip_flexion_l	hip_adduction_l	hip_rotation_l	knee_angle_l	ankle_angle_l	subtalar_angle_l	mtp_angle_l	lumbar_extension	lumbar_bending	lumbar_rotation	arm_flex_r	arm_add_r	arm_rot_r	elbow_flex_r	pro_sup_r	wrist_flex_r	wrist_dev_r	arm_flex_l	arm_add_l	arm_rot_l	elbow_flex_l	pro_sup_l	wrist_flex_l	wrist_dev_l
0.53	-3.13822	1.31151	-1.68481	0.821216	-0.236112	0.990326	-0.224399	-0.0184392	-0.104531	0.307632	0.195482	0	0	0.272262	0.016911	0.0556671	0.576756	-0.698132	0	0	-0.452703	0.0166873	0.0959849	0.345553	-0.339207	0.0114706	1.15153	1.04644	0	0	0.292482	-0.404715	0.0494747	1.1821	0.872823	0	0
0.54	-3.1042	1.30659	-1.71898	0.820116	-0.223635	0.990126	-0.24226	-0.031812	-0.106176	0.309645	0.207432	0	0	0.234334	0.03376	0.130344	0.457057	-0.698132	0	0	-0.454218	0.00723347	0.0922703	0.340973	-0.33852	0.00991809	1.15251	1.04687	0	0	0.287824	-0.403567	0.0465565	1.18214	0.872817	0	0
0.55	-3.04271	1.28836	-1.78551	0.81898	-0.210875	0.991286	-0.273102	-0.0593781	-0.110422	0.310548	0.219281	0	0	0.11507	0.0540661	0.415809	0.207412	-0.698132	0	0	-0.468126	-0.0144486	0.0882777	0.338545	-0.338343	0.0130681	1.15348	1.02312	0	0	0.283124	-0.402733	0.0409132	1.18317	0.877163	0	0
0.56	-3.09864	1.29369	-1.73828	0.819463	-0.196889	0.988471	-0.284636	-0.0401315	-0.0936199	0.312516	0.225611	0	0	0.0393805	-0.0138529	0.698132	0	-0.698132	0	0	-0.456859	-0.00111234	0.097827	0.331264	-0.338351	0.0121475	1.15443	1.04375	0	0	0.27018	-0.401912	0.0352539	1.18696	0.8751	0	0
0.57	3.10677	1.31423	-1.65369	0.8183	-0.18412	0.984016	-0.276388	-0.0150004	-0.0929193	0.320654	0.238957	0	0	0.0787327	-0.0429793	0.698132	0	-0.698132	0	0	-0.432433	0.0262406	0.0965379	0.325835	-0.34161	0.0153828	1.15644	1.04223	0	0	0.259668	-0.398078	0.0291534	1.1898	0.873837	0	0
0.58	3.01762	1.33227	-1.55959	0.817339	-0.171506	0.979499	-0.267457	0.0088579	-0.0907674	0.330974	0.252091	0	0	0.116285	-0.0710201	0.698112	0	-0.698132	0	0	-0.409312	0.0524123	0.0962963	0.322183	-0.344909	0.0185258	1.15809	1.03811	0	0	0.25142	-0.394245	0.0241453	1.19174	0.872034	0	0
0.59	2.922	1.34887	-1.45705	0.815065	-0.160013	0.97474	-0.256332	0.0311355	-0.0850901	0.343528	0.263789	0	0	0.155111	-0.0952229	0.694021	0	-0.698132	0	0	-0.388295	0.0782679	0.094101	0.32311	-0.350376	0.0216325	1.15958	1.03275	0	0	0.248491	-0.38988	0.022682	1.19299	0.870985	0	0
0.6	2.81862	1.36086	-1.35111	0.814339	-0.147606	0.970202	-0.2464	0.0510102	-0.0806724	0.358773	0.276728	0	0	0.188584	-0.119006	0.690005	0	-0.698132	0	0	-0.368776	0.10069	0.0946128	0.324637	-0.353962	0.0261954	1.15971	1.0209	0	0	0.246752	-0.387265	0.0227394	1.19126	0.871232	0	0
0.61	2.71571	1.37205	-1.23819	0.811692	-0.136129	0.965502	-0.234545	0.0697256	-0.0740321	0.375427	0.287671	0	0	0.225174	-0.135624	0.67737	0	-0.698132	0	0	-0.350499	0.123161	0.0882584	0.331887	-0.359415	0.0267714	1.15791	1.0426	0	0	0.25128	-0.383768	0.027071	1.18952	0.869441	0	0
0.62	2.65747	1.37194	-1.19463	0.81215	-0.123862	0.962409	-0.235622	0.0763215	-0.05271	0.394813	0.301709	0	0	0.236365	-0.153171	0.648655	0	-0.698132	0	0	-0.345097	0.129314	0.101646	0.337983	-0.36905	0.0570878	1.15898	0.927575	0	0	0.251246	-0.382047	0.0260039	1.18575	0.877993	0	0
0.63	2.52032	1.38823	-1.0977	0.815598	-0.107827	0.957248	-0.208618	0.0837286	-0.0226528	0.435034	0.332163	0	0	0.258841	-0.177284	0.391811	0	-0.425235	0	0	-0.307043	0.137166	0.132786	0.335356	-0.389677	0.119324	1.15882	0.873635	0	0	0.230162	-0.380488	0.0209406	1.18485	0.885762	0	0
0.64	2.51479	1.37805	-1.03566	0.808521	-0.0991753	0.95492	-0.225927	0.09784	-0.0491202	0.434737	0.319995	0	0	0.278407	-0.173492	0.655526	0	-0.698132	0	0	-0.322253	0.157394	0.0842046	0.356109	-0.372926	0.0672467	1.14983	0.931135	0	0	0.259067	-0.378034	0.0274394	1.17734	0.872383	0	0
0.65	2.42255	1.38361	-0.934647	0.806246	-0.086315	0.950985	-0.214988	0.108424	-0.0554325	0.4578	0.328519	0	0	0.301003	-0.182693	0.653126	0	-0.698132	0	0	-0.301763	0.172012	0.0733553	0.359465	-0.365139	0.0496093	1.13962	1.03651	0	0	0.25846	-0.376362	0.0290403	1.17134	0.849315	0	0
0.66	2.40587	1.38284	-0.916561	0.804836	-0.0726076	0.948473	-0.219932	0.108319	-0.0504676	0.477505	0.334866	0	0	0.301975	-0.184919	0.648259	0	-0.698132	0	0	-0.297659	0.17438	0.0705758	0.362717	-0.364603	0.0490685	1.13803	1.03606	0	0	0.261808	-0.375229	0.0307134	1.16582	0.847278	0	0
0.67	2.41655	1.38175	-0.929384	0.803653	-0.0585228	0.946435	-0.229145	0.102832	-0.0441126	0.497165	0.340108	0	0	0.293363	-0.184309	0.64876	0	-0.698132	0	0	-0.296977	0.171084	0.0712813	0.363466	-0.363929	0.0477111	1.13808	1.03265	0	0	0.264993	-0.375724	0.0347737	1.1608	0.846599	0	0
0.68	2.46277	1.37629	-1.00286	0.80581	-0.0426053	0.945801	-0.2467	0.086914	-0.0325178	0.519508	0.344505	0	0	0.259967	-0.19312	0.683108	0	-0.698132	0	0	-0.301321	0.15509	0.0929446	0.354808	-0.353714	0.045397	1.13498	1.03738	0	0	0.257749	-0.381788	0.0354793	1.15431	0.847269	0	0
0.69	2.49381	1.38076	-1.02095	0.802336	-0.0285077	0.943077	-0.250354	0.0769871	-0.0281051	0.543984	0.347361	0	0	0.255544	-0.175682	0.660198	0	-0.698132	0	0	-0.300295	0.149918	0.082459	0.358373	-0.363185	0.0420176	1.14142	1.04143	0	0	0.268577	-0.380201	0.0469832	1.15662	0.845226	0	0
0.7	2.58871	1.37587	-1.14171	0.803083	-0.0131076	0.942483	-0.26831	0.0509036	-0.00228287	0.572044	0.349275	0	0	0.21643	-0.165433	0.611621	0	-0.698132	0	0	-0.312158	0.124228	0.105588	0.352361	-0.372198	0.0633473	1.15257	0.929777	0	0	0.267914	-0.383019	0.0501171	1.15957	0.863507	0	0
0.71	2.57158	1.38638	-1.18403	0.808608	0.00848174	0.939433	-0.258314	0.0277339	0.0322595	0.614873	0.35985	0	0	0.184941	-0.168987	0.342627	0	-0.369001	0	0	-0.279545	0.106404	0.152144	0.328029	-0.387422	0.117232	1.15908	0.875453	0	0	0.230423	-0.387503	0.0421367	1.16692	0.879641	0	0
0.72	2.46746	1.36715	-1.09611	0.80848	0.0316342	0.934591	-0.287104	0.0435171	0.0491999	0.622248	0.34231	0	0	0.162331	-0.178428	0.0437557	0	0.523599	0	0	-0.2676	0.134408	0.171839	0.300439	-0.383085	0.0599881	1.17553	1.01209	0	0	0.209498	-0.386499	0.0503074	1.18378	0.83503	0	0
0.73	2.4799	1.3731	-1.11696	0.807231	0.0464904	0.931842	-0.271647	0.0299456	0.0562893	0.673943	0.331547	0	0	0.15343	-0.172514	0.0617105	0	0.523599	0	0	-0.261026	0.124167	0.178092	0.29785	-0.384699	0.0611507	1.1768	1.00946	0	0	0.205437	-0.389183	0.0500541	1.19339	0.835995	0	0
0.74	2.48478	1.38056	-1.1281	0.806016	0.0610384	0.929139	-0.248184	0.018427	0.0634577	0.733538	0.31069	0	0	0.15262	-0.166771	0.0630041	0	0.523599	0	0	-0.252782	0.115479	0.181821	0.295974	-0.386605	0.0640472	1.17792	0.998057	0	0	0.201354	-0.39071	0.048654	1.20322	0.833181	0	0
0.75	2.50804	1.39137	-1.15527	0.804292	0.0751186	0.92726	-0.216502	0.0042257	0.070733	0.799717	0.276348	0	0	0.155809	-0.155753	0.0478345	0	0.523599	0	0	-0.24426	0.102684	0.183496	0.294604	-0.387568	0.0655383	1.17792	0.989339	0	0	0.200149	-0.39107	0.0482465	1.21004	0.832198	0	0
0.76	2.56822	1.40692	-1.21793	0.802623	0.088827	0.926375	-0.175676	-0.0157393	0.0784987	0.871574	0.228318	0	0	0.159304	-0.137333	0.0494305	0	0.523599	0	0	-0.234814	0.0824985	0.184978	0.293848	-0.38779	0.0658579	1.17602	0.981759	0	0	0.20411	-0.391284	0.0518135	1.2107	0.840602	0	0
0.77	2.67716	1.41853	-1.32682	0.800629	0.102218	0.926728	-0.138548	-0.0384183	0.0855738	0.940556	0.170284	0	0	0.161827	-0.113758	0.0507161	0.0144922	0.523599	0	0	-0.231391	0.0575688	0.185346	0.294703	-0.388019	0.0675185	1.17288	0.977279	0	0	0.212301	-0.393266	0.0589574	1.2081	0.849158	0	0
0.78	2.79635	1.42492	-1.44586	0.799187	0.115132	0.927453	-0.104314	-0.0576879	0.0954484	1.00603	0.110242	0	0	0.166272	-0.0917133	0.0629451	0.0467588	0.523599	0	0	-0.232173	0.0338495	0.186821	0.297561	-0.389557	0.0718514	1.16858	0.966373	0	0	0.222134	-0.396226	0.0671144	1.20464	0.858225	0	0
0.79	2.89605	1.42701	-1.54387	0.797789	0.127922	0.928141	-0.073784	-0.070888	0.10466	1.06592	0.0548014	0	0	0.164808	-0.0731877	0.0913886	0.0703726	0.523599	0	0	-0.23549	0.0152833	0.187117	0.300929	-0.391738	0.0762248	1.16362	0.946727	0	0	0.230665	-0.398884	0.0728004	1.20306	0.865156	0	0
0.8	2.97362	1.42412	-1.62495	0.796839	0.140788	0.928993	-0.0483323	-0.0795324	0.119208	1.11975	0.00883245	0	0	0.16799	-0.0578834	0.0478845	0.109862	0.523599	0	0	-0.24271	6.53625e-05	0.192277	0.302219	-0.394951	0.0781019	1.16221	0.954173	0	0	0.235508	-0.400694	0.0766463	1.20646	0.86057	0	0
